<mxfile host="app.diagrams.net" modified="2023-07-19T10:23:15.509Z" agent="Mozilla/5.0 (X11; Ubuntu; Linux x86_64; rv:109.0) Gecko/20100101 Firefox/114.0" version="21.6.3" etag="bwxSxweJzUa32ndDaH4K" type="github">
  <diagram name="Page-1" id="8Ss-g7mdqEp9VIPg8ZDx">
    <mxGraphModel>
      <root>
        <mxCell id="0" />
        <mxCell id="1" parent="0" />
      </root>
    </mxGraphModel>
  </diagram>
</mxfile>
